<svg xmlns="http://www.w3.org/2000/svg" enable-background="new 0 0 100 100" viewBox="0 0 100 100">
    <path d="M50,5C25.19,5,5,25.19,5,50c0,7.51,1.89,14.93,5.47,21.5L6.96,86.75c-0.31,1.35,0.09,2.75,1.07,3.73
	c0.98,0.98,2.38,1.38,3.73,1.07l14.48-3.34C33.37,92.65,41.56,95,50,95c24.81,0,45-20.19,45-45C95,25.19,74.81,5,50,5z M50,91
	c-7.95,0-15.66-2.29-22.31-6.61c-0.33-0.21-0.71-0.32-1.09-0.32c-0.15,0-0.3,0.02-0.45,0.05l-15.29,3.53l3.69-15.99
	c0.11-0.49,0.04-1-0.21-1.44C10.84,64.07,9,57.08,9,50C9,27.39,27.39,9,50,9s41,18.39,41,41S72.61,91,50,91z M71,38c0,1.1-0.9,2-2,2
	H31c-1.1,0-2-0.9-2-2s0.9-2,2-2h38C70.1,36,71,36.9,71,38z M71,50c0,1.1-0.9,2-2,2H31c-1.1,0-2-0.9-2-2s0.9-2,2-2h38
	C70.1,48,71,48.9,71,50z M71,62c0,1.1-0.9,2-2,2H31c-1.1,0-2-0.9-2-2s0.9-2,2-2h38C70.1,60,71,60.9,71,62z"/>
</svg>