<svg xmlns="http://www.w3.org/2000/svg" fill-rule="evenodd" stroke-linejoin="round" stroke-miterlimit="2"
     clip-rule="evenodd" viewBox="0 0 32 32">
    <path d="M44.5,147C44.5,147 44.5,135.69 44.5,131C44.5,130.337 44.763,129.701 45.232,129.232C45.701,128.763 46.337,128.5 47,128.5C50.832,128.5 59.168,128.5 63,128.5C63.663,128.5 64.299,128.763 64.768,129.232C65.237,129.701 65.5,130.337 65.5,131L65.5,140.237L67.525,138.211C68.111,137.626 69.061,137.626 69.646,138.211C70.078,138.643 70.629,139.194 71.061,139.626C71.646,140.211 71.646,141.161 71.061,141.747L65.5,147.308L65.5,153C65.5,154.381 64.381,155.5 63,155.5L51,155.5L50.989,155.5C50.9,155.498 50.817,155.473 50.745,155.43C50.69,155.397 50.64,155.353 50.6,155.3L44.6,147.3C44.59,147.286 44.58,147.272 44.571,147.257C44.527,147.183 44.501,147.097 44.5,147.005L44.5,147ZM64.501,141.235C64.5,141.224 64.5,141.213 64.5,141.202C64.5,141.202 64.5,134.461 64.5,131C64.5,130.602 64.342,130.221 64.061,129.939C63.779,129.658 63.398,129.5 63,129.5C59.168,129.5 50.832,129.5 47,129.5C46.602,129.5 46.221,129.658 45.939,129.939C45.658,130.221 45.5,130.602 45.5,131L45.5,146.5L49,146.5C50.381,146.5 51.5,147.619 51.5,149L51.5,154.5L63,154.5C63.828,154.5 64.5,153.828 64.5,153L64.5,148.308L61.161,151.646L61.156,151.652C61.082,151.723 60.993,151.767 60.899,151.784L57.37,152.49C57.206,152.523 57.037,152.472 56.919,152.354C56.8,152.235 56.749,152.066 56.782,151.902L57.488,148.373C57.505,148.279 57.549,148.19 57.62,148.117L57.626,148.11L64.501,141.235ZM46,147.5L50.5,153.5L50.5,149C50.5,148.172 49.828,147.5 49,147.5L46,147.5ZM57.909,151.363L59.793,150.986L58.286,149.479L57.909,151.363ZM68.586,142.808L66.464,140.686L58.686,148.464L60.808,150.586L68.586,142.808ZM60,141.5L50,141.5C49.724,141.5 49.5,141.724 49.5,142C49.5,142.276 49.724,142.5 50,142.5L60,142.5C60.276,142.5 60.5,142.276 60.5,142C60.5,141.724 60.276,141.5 60,141.5ZM69.293,142.101L70.354,141.04C70.549,140.845 70.549,140.528 70.354,140.333C69.922,139.901 69.371,139.35 68.939,138.919C68.744,138.723 68.427,138.723 68.232,138.919L67.172,139.979L69.293,142.101ZM60,137.5L50,137.5C49.724,137.5 49.5,137.724 49.5,138C49.5,138.276 49.724,138.5 50,138.5L60,138.5C60.276,138.5 60.5,138.276 60.5,138C60.5,137.724 60.276,137.5 60,137.5ZM57,133.5L50,133.5C49.724,133.5 49.5,133.724 49.5,134C49.5,134.276 49.724,134.5 50,134.5L57,134.5C57.276,134.5 57.5,134.276 57.5,134C57.5,133.724 57.276,133.5 57,133.5Z"
          transform="translate(-42 -126)"/>
</svg>