<svg width="54" height="52" version="1.1" xmlns="http://www.w3.org/2000/svg">
    <path fill="rgb(0,0,0)" stroke="rgb(0,0,0)" stroke-width="1" opacity="0"
          d="M 0 0 L 25 0.5 L 1.5 22 L 0 22 L 0 0 Z "></path>
    <path fill="rgb(0,0,0)" stroke="rgb(0,0,0)" stroke-width="1" opacity="0"
          d="M 29.5 0 L 54 0 L 54 22.5 L 53.5 23 L 44.5 14 L 33.5 5 L 29 0.5 L 29.5 0 Z "></path>
    <path fill="rgb(0,0,0)" stroke="rgb(0,0,0)" stroke-width="1" opacity="0"
          d="M 26.5 5 Q 35.86 11.14 43 19.5 L 43 47.5 L 42.5 48 L 35 48 L 35 32.5 L 33.5 31 L 20.5 31 L 19 32.5 L 19 48 L 11 48 L 11 18.5 L 12.5 18 L 26.5 5 Z "></path>
    <path fill="rgb(0,0,0)" stroke="rgb(0,0,0)" stroke-width="1" opacity="0"
          d="M 6.5 23 L 7 50.5 L 8 51.5 L 0 52 L 0 26.5 Q -0.13 25.63 3.5 26 L 6.5 23 Z "></path>
    <path fill="rgb(0,0,0)" stroke="rgb(0,0,0)" stroke-width="1" opacity="0"
          d="M 47.5 23 L 52.5 27 L 54 26.5 L 54 51.5 L 53.5 52 L 46.5 52 L 47 50.5 L 47.5 23 Z "></path>
    <path fill="rgb(0,0,0)" stroke="rgb(0,0,0)" stroke-width="1" opacity="0"
          d="M 23 35 L 31 35 L 31 49.5 L 32 52 L 22 51.5 L 23 50.5 L 23 35 Z "></path>
    <path fill="rgb(255,212,42)" stroke="rgb(255,212,42)" stroke-width="1" opacity="0.00784313725490196"
          d="M 34.5 5 L 34.5 6 L 34.5 5 Z "></path>
    <path fill="rgb(255,212,42)" stroke="rgb(255,212,42)" stroke-width="1" opacity="0.00784313725490196"
          d="M 33.5 10 L 33.5 11 L 33.5 10 Z "></path>
    <path fill="rgb(255,212,42)" stroke="rgb(255,212,42)" stroke-width="1" opacity="0.00784313725490196"
          d="M 10.5 13 L 10.5 14 L 10.5 13 Z "></path>
    <path fill="rgb(255,212,42)" stroke="rgb(255,212,42)" stroke-width="1" opacity="0.00784313725490196"
          d="M 44.5 14 L 44.5 15 L 44.5 14 Z "></path>
    <path fill="rgb(255,212,42)" stroke="rgb(255,212,42)" stroke-width="1" opacity="0.00784313725490196"
          d="M 0.5 22 L 0.5 23 L 0.5 22 Z "></path>
    <path fill="rgb(255,212,42)" stroke="rgb(255,212,42)" stroke-width="1" opacity="0.00784313725490196"
          d="M 22.5 50 L 22.5 51 L 22.5 50 Z "></path>
    <path fill="rgb(234,200,101)" stroke="rgb(234,200,101)" stroke-width="1" opacity="0.058823529411764705"
          d="M 20.5 4 L 20.5 5 L 20.5 4 Z "></path>
    <path fill="rgb(234,200,101)" stroke="rgb(234,200,101)" stroke-width="1" opacity="0.058823529411764705"
          d="M 18.5 6 L 18.5 7 L 18.5 6 Z "></path>
    <path fill="rgb(234,200,101)" stroke="rgb(234,200,101)" stroke-width="1" opacity="0.058823529411764705"
          d="M 24.5 6 L 24.5 7 L 24.5 6 Z "></path>
    <path fill="rgb(234,200,101)" stroke="rgb(234,200,101)" stroke-width="1" opacity="0.058823529411764705"
          d="M 30.5 7 L 33 9.5 L 32.5 10 L 30 7.5 L 30.5 7 Z "></path>
    <path fill="rgb(234,200,101)" stroke="rgb(234,200,101)" stroke-width="1" opacity="0.058823529411764705"
          d="M 36.5 7 L 36.5 8 L 36.5 7 Z "></path>
    <path fill="rgb(234,200,101)" stroke="rgb(234,200,101)" stroke-width="1" opacity="0.058823529411764705"
          d="M 22.5 8 L 22.5 9 L 22.5 8 Z "></path>
    <path fill="rgb(234,200,101)" stroke="rgb(234,200,101)" stroke-width="1" opacity="0.058823529411764705"
          d="M 8.5 15 L 8.5 16 L 8.5 15 Z "></path>
    <path fill="rgb(234,200,101)" stroke="rgb(234,200,101)" stroke-width="1" opacity="0.058823529411764705"
          d="M 14.5 15 L 15 15.5 L 12.5 18 L 12 17.5 L 14.5 15 Z "></path>
    <path fill="rgb(234,200,101)" stroke="rgb(234,200,101)" stroke-width="1" opacity="0.058823529411764705"
          d="M 45.5 15 Q 48 16 46.5 17 Q 44 16 45.5 15 Z "></path>
    <path fill="rgb(234,200,101)" stroke="rgb(234,200,101)" stroke-width="1" opacity="0.058823529411764705"
          d="M 41.5 17 L 41.5 18 L 41.5 17 Z "></path>
    <path fill="rgb(234,200,101)" stroke="rgb(234,200,101)" stroke-width="1" opacity="0.058823529411764705"
          d="M 3.5 25 L 3.5 26 L 3.5 25 Z "></path>
    <path fill="rgb(234,200,101)" stroke="rgb(234,200,101)" stroke-width="1" opacity="0.058823529411764705"
          d="M 51.5 26 L 51.5 27 L 51.5 26 Z "></path>
    <path fill="rgb(234,200,101)" stroke="rgb(234,200,101)" stroke-width="1" opacity="0.058823529411764705"
          d="M 20.5 31 L 20.5 32 L 20.5 31 Z "></path>
    <path fill="rgb(234,200,101)" stroke="rgb(234,200,101)" stroke-width="1" opacity="0.058823529411764705"
          d="M 21.5 51 L 21.5 52 L 21.5 51 Z "></path>
    <path fill="rgb(234,200,101)" stroke="rgb(234,200,101)" stroke-width="1" opacity="0.058823529411764705"
          d="M 45.5 51 L 45.5 52 L 45.5 51 Z "></path>
    <path fill="rgb(236,198,107)" stroke="rgb(236,198,107)" stroke-width="1" opacity="0.7529411764705882"
          d="M 27.5 0 L 27.5 1 L 27.5 0 Z "></path>
    <path fill="rgb(236,198,107)" stroke="rgb(236,198,107)" stroke-width="1" opacity="0.7529411764705882"
          d="M 20.5 5 Q 22 6 19.5 7 Q 18 6 20.5 5 Z "></path>
    <path fill="rgb(236,198,107)" stroke="rgb(236,198,107)" stroke-width="1" opacity="0.7529411764705882"
          d="M 23.5 6 Q 25 7 22.5 8 Q 21 7 23.5 6 Z "></path>
    <path fill="rgb(236,198,107)" stroke="rgb(236,198,107)" stroke-width="1" opacity="0.7529411764705882"
          d="M 34.5 6 L 37 8.5 L 36.5 9 L 34 6.5 L 34.5 6 Z "></path>
    <path fill="rgb(236,198,107)" stroke="rgb(236,198,107)" stroke-width="1" opacity="0.7529411764705882"
          d="M 31.5 7 Q 34 8 32.5 9 Q 30 8 31.5 7 Z "></path>
    <path fill="rgb(236,198,107)" stroke="rgb(236,198,107)" stroke-width="1" opacity="0.7529411764705882"
          d="M 10.5 14 L 11 14.5 L 8.5 17 L 8 16.5 L 10.5 14 Z "></path>
    <path fill="rgb(236,198,107)" stroke="rgb(236,198,107)" stroke-width="1" opacity="0.7529411764705882"
          d="M 13.5 15 Q 15 16 12.5 17 Q 11 16 13.5 15 Z "></path>
    <path fill="rgb(236,198,107)" stroke="rgb(236,198,107)" stroke-width="1" opacity="0.7529411764705882"
          d="M 41.5 16 L 44 18.5 L 43.5 19 L 41 16.5 L 41.5 16 Z "></path>
    <path fill="rgb(236,198,107)" stroke="rgb(236,198,107)" stroke-width="1" opacity="0.7529411764705882"
          d="M 45.5 16 Q 48 17 46.5 18 Q 44 17 45.5 16 Z "></path>
    <path fill="rgb(236,198,107)" stroke="rgb(236,198,107)" stroke-width="1" opacity="0.7529411764705882"
          d="M 3.5 24 Q 5 25 2.5 26 Q 1 25 3.5 24 Z "></path>
    <path fill="rgb(236,198,107)" stroke="rgb(236,198,107)" stroke-width="1" opacity="0.7529411764705882"
          d="M 51.5 25 L 51.5 26 L 51.5 25 Z "></path>
    <path fill="rgb(236,198,107)" stroke="rgb(236,198,107)" stroke-width="1" opacity="0.7529411764705882"
          d="M 22.5 31 L 32 31.5 L 22.5 32 L 22.5 31 Z "></path>
    <path fill="rgb(236,198,107)" stroke="rgb(236,198,107)" stroke-width="1" opacity="0.7529411764705882"
          d="M 20.5 32 L 20.5 33 L 20.5 32 Z "></path>
    <path fill="rgb(236,198,107)" stroke="rgb(236,198,107)" stroke-width="1" opacity="0.7529411764705882"
          d="M 33.5 32 L 33.5 33 L 33.5 32 Z "></path>
    <path fill="rgb(236,198,107)" stroke="rgb(236,198,107)" stroke-width="1" opacity="0.7529411764705882"
          d="M 22.5 34 L 22.5 35 L 22.5 34 Z "></path>
    <path fill="rgb(236,198,107)" stroke="rgb(236,198,107)" stroke-width="1" opacity="0.7529411764705882"
          d="M 31.5 34 L 31.5 35 L 31.5 34 Z "></path>
    <path fill="rgb(236,198,107)" stroke="rgb(236,198,107)" stroke-width="1" opacity="0.7529411764705882"
          d="M 19.5 35 L 20 48.5 L 19 48.5 L 19.5 35 Z "></path>
    <path fill="rgb(236,198,107)" stroke="rgb(236,198,107)" stroke-width="1" opacity="0.7529411764705882"
          d="M 34.5 48 L 34.5 49 L 34.5 48 Z "></path>
    <path fill="rgb(236,198,107)" stroke="rgb(236,198,107)" stroke-width="1" opacity="0.7529411764705882"
          d="M 43.5 48 L 43.5 49 L 43.5 48 Z "></path>
    <path fill="rgb(236,198,107)" stroke="rgb(236,198,107)" stroke-width="1" opacity="0.7529411764705882"
          d="M 46.5 48 L 46.5 49 L 46.5 48 Z "></path>
    <path fill="rgb(236,198,107)" stroke="rgb(236,198,107)" stroke-width="1" opacity="0.7529411764705882"
          d="M 21.5 50 L 21.5 51 L 21.5 50 Z "></path>
    <path fill="rgb(236,198,107)" stroke="rgb(236,198,107)" stroke-width="1" opacity="0.7529411764705882"
          d="M 32.5 50 L 32.5 51 L 32.5 50 Z "></path>
    <path fill="rgb(236,198,107)" stroke="rgb(236,198,107)" stroke-width="1" opacity="0.7529411764705882"
          d="M 45.5 50 L 45.5 51 L 45.5 50 Z "></path>
    <path fill="rgb(236,198,107)" stroke="rgb(236,198,107)" stroke-width="1" opacity="0.9921568627450981"
          d="M 25.5 1 L 29.5 2 L 53 23.5 L 52.5 26 Q 50.35 22.35 46 22 L 46 49.5 L 44.5 51 Q 41.67 53.17 35.5 52 L 32 49.5 L 32 34 L 22 34 L 22 49.5 L 20.5 51 Q 17.67 53.17 11.5 52 L 8 49.5 L 8 22.5 Q 8.25 21.75 5.5 22 L 1.5 26 L 1 25.5 L 1 23.5 L 5.5 19 L 25.5 1 Z M 27 3 L 17 12 L 10 19 L 10 49 L 20 49 L 20 34 L 22 32 L 33 32 L 34 34 L 34 49 L 44 49 L 44 49 L 44 19 L 27 3 Z "></path>
    <path fill="rgb(236,197,106)" stroke="rgb(236,197,106)" stroke-width="1" opacity="0.5098039215686274"
          d="M 22.5 3 Q 24 4 21.5 5 Q 20 4 22.5 3 Z "></path>
    <path fill="rgb(236,197,106)" stroke="rgb(236,197,106)" stroke-width="1" opacity="0.5098039215686274"
          d="M 32.5 4 Q 35 5 33.5 6 Q 31 5 32.5 4 Z "></path>
    <path fill="rgb(236,197,106)" stroke="rgb(236,197,106)" stroke-width="1" opacity="0.5098039215686274"
          d="M 21.5 8 Q 23 9 20.5 10 Q 19 9 21.5 8 Z "></path>
    <path fill="rgb(236,197,106)" stroke="rgb(236,197,106)" stroke-width="1" opacity="0.5098039215686274"
          d="M 33.5 9 L 36 11.5 L 35.5 12 L 33 9.5 L 33.5 9 Z "></path>
    <path fill="rgb(236,197,106)" stroke="rgb(236,197,106)" stroke-width="1" opacity="0.5098039215686274"
          d="M 12.5 12 Q 14 13 11.5 14 Q 10 13 12.5 12 Z "></path>
    <path fill="rgb(236,197,106)" stroke="rgb(236,197,106)" stroke-width="1" opacity="0.5098039215686274"
          d="M 42.5 13 L 45 15.5 L 44.5 16 L 42 13.5 L 42.5 13 Z "></path>
    <path fill="rgb(236,197,106)" stroke="rgb(236,197,106)" stroke-width="1" opacity="0.5098039215686274"
          d="M 11.5 17 Q 13 18 10.5 19 Q 9 18 11.5 17 Z "></path>
    <path fill="rgb(236,197,106)" stroke="rgb(236,197,106)" stroke-width="1" opacity="0.5098039215686274"
          d="M 2.5 21 L 3 21.5 L 0.5 24 L 0 23.5 L 2.5 21 Z "></path>
    <path fill="rgb(236,197,106)" stroke="rgb(236,197,106)" stroke-width="1" opacity="0.5098039215686274"
          d="M 52.5 22 Q 55 23 53.5 24 Q 51 23 52.5 22 Z "></path>
    <path fill="rgb(236,197,106)" stroke="rgb(236,197,106)" stroke-width="1" opacity="0.5098039215686274"
          d="M 0.5 25 L 0.5 26 L 0.5 25 Z "></path>
    <path fill="rgb(236,197,106)" stroke="rgb(236,197,106)" stroke-width="1" opacity="0.5098039215686274"
          d="M 53.5 25 L 53.5 26 L 53.5 25 Z "></path>
    <path fill="rgb(236,197,106)" stroke="rgb(236,197,106)" stroke-width="1" opacity="0.5098039215686274"
          d="M 21.5 31 L 21.5 32 L 21.5 31 Z "></path>
    <path fill="rgb(236,197,106)" stroke="rgb(236,197,106)" stroke-width="1" opacity="0.5098039215686274"
          d="M 32.5 31 L 32.5 32 L 32.5 31 Z "></path>
    <path fill="rgb(236,197,106)" stroke="rgb(236,197,106)" stroke-width="1" opacity="0.5098039215686274"
          d="M 19.5 34 L 19.5 35 L 19.5 34 Z "></path>
    <path fill="rgb(236,197,106)" stroke="rgb(236,197,106)" stroke-width="1" opacity="0.5098039215686274"
          d="M 34.5 34 L 35 47.5 L 34 47.5 L 34.5 34 Z "></path>
    <path fill="rgb(236,197,106)" stroke="rgb(236,197,106)" stroke-width="1" opacity="0.5098039215686274"
          d="M 22.5 35 L 23 48.5 L 22 48.5 L 22.5 35 Z "></path>
    <path fill="rgb(236,197,106)" stroke="rgb(236,197,106)" stroke-width="1" opacity="0.5098039215686274"
          d="M 31.5 35 L 32 48.5 L 31 48.5 L 31.5 35 Z "></path>
    <path fill="rgb(236,197,106)" stroke="rgb(236,197,106)" stroke-width="1" opacity="0.5098039215686274"
          d="M 10.5 48 L 10.5 49 L 10.5 48 Z "></path>
    <path fill="rgb(236,197,106)" stroke="rgb(236,197,106)" stroke-width="1" opacity="0.5098039215686274"
          d="M 7.5 49 L 7.5 50 L 7.5 49 Z "></path>
    <path fill="rgb(236,197,106)" stroke="rgb(236,197,106)" stroke-width="1" opacity="0.5098039215686274"
          d="M 46.5 49 L 46.5 50 L 46.5 49 Z "></path>
    <path fill="rgb(236,197,106)" stroke="rgb(236,197,106)" stroke-width="1" opacity="0.5098039215686274"
          d="M 9.5 51 L 9.5 52 L 9.5 51 Z "></path>
    <path fill="rgb(236,197,106)" stroke="rgb(236,197,106)" stroke-width="1" opacity="0.5098039215686274"
          d="M 20.5 51 L 20.5 52 L 20.5 51 Z "></path>
    <path fill="rgb(236,197,106)" stroke="rgb(236,197,106)" stroke-width="1" opacity="0.5098039215686274"
          d="M 33.5 51 L 33.5 52 L 33.5 51 Z "></path>
    <path fill="rgb(236,197,106)" stroke="rgb(236,197,106)" stroke-width="1" opacity="0.5098039215686274"
          d="M 44.5 51 L 44.5 52 L 44.5 51 Z "></path>
    <path fill="rgb(252,211,126)" stroke="rgb(252,211,126)" stroke-width="1" opacity="0.0196078431372549"
          d="M 19.5 5 L 19.5 6 L 19.5 5 Z "></path>
    <path fill="rgb(252,211,126)" stroke="rgb(252,211,126)" stroke-width="1" opacity="0.0196078431372549"
          d="M 35.5 6 L 35.5 7 L 35.5 6 Z "></path>
    <path fill="rgb(252,211,126)" stroke="rgb(252,211,126)" stroke-width="1" opacity="0.0196078431372549"
          d="M 23.5 7 L 23.5 8 L 23.5 7 Z "></path>
    <path fill="rgb(252,211,126)" stroke="rgb(252,211,126)" stroke-width="1" opacity="0.0196078431372549"
          d="M 9.5 14 L 9.5 15 L 9.5 14 Z "></path>
    <path fill="rgb(252,211,126)" stroke="rgb(252,211,126)" stroke-width="1" opacity="0.0196078431372549"
          d="M 42.5 18 L 42.5 19 L 42.5 18 Z "></path>
    <path fill="rgb(252,211,126)" stroke="rgb(252,211,126)" stroke-width="1" opacity="0.0196078431372549"
          d="M 19.5 32 L 19.5 33 L 19.5 32 Z "></path>
    <path fill="rgb(252,211,126)" stroke="rgb(252,211,126)" stroke-width="1" opacity="0.0196078431372549"
          d="M 34.5 32 L 34.5 33 L 34.5 32 Z "></path>
    <path fill="rgb(252,211,126)" stroke="rgb(252,211,126)" stroke-width="1" opacity="0.0196078431372549"
          d="M 46.5 50 L 46.5 51 L 46.5 50 Z "></path>
    <path fill="rgb(232,194,108)" stroke="rgb(232,194,108)" stroke-width="1" opacity="0.08235294117647059"
          d="M 25.5 5 L 25.5 6 L 25.5 5 Z "></path>
    <path fill="rgb(232,194,108)" stroke="rgb(232,194,108)" stroke-width="1" opacity="0.08235294117647059"
          d="M 29.5 6 L 29.5 7 L 29.5 6 Z "></path>
    <path fill="rgb(232,194,108)" stroke="rgb(232,194,108)" stroke-width="1" opacity="0.08235294117647059"
          d="M 17.5 7 L 17.5 8 L 17.5 7 Z "></path>
    <path fill="rgb(232,194,108)" stroke="rgb(232,194,108)" stroke-width="1" opacity="0.08235294117647059"
          d="M 37.5 8 L 37.5 9 L 37.5 8 Z "></path>
    <path fill="rgb(232,194,108)" stroke="rgb(232,194,108)" stroke-width="1" opacity="0.08235294117647059"
          d="M 15.5 14 L 15.5 15 L 15.5 14 Z "></path>
    <path fill="rgb(232,194,108)" stroke="rgb(232,194,108)" stroke-width="1" opacity="0.08235294117647059"
          d="M 39.5 15 Q 42 16 40.5 17 Q 38 16 39.5 15 Z "></path>
    <path fill="rgb(232,194,108)" stroke="rgb(232,194,108)" stroke-width="1" opacity="0.08235294117647059"
          d="M 7.5 16 L 7.5 17 L 7.5 16 Z "></path>
    <path fill="rgb(232,194,108)" stroke="rgb(232,194,108)" stroke-width="1" opacity="0.08235294117647059"
          d="M 47.5 17 Q 50 18 48.5 19 Q 46 18 47.5 17 Z "></path>
    <path fill="rgb(232,194,108)" stroke="rgb(232,194,108)" stroke-width="1" opacity="0.08235294117647059"
          d="M 4.5 24 L 4.5 25 L 4.5 24 Z "></path>
    <path fill="rgb(232,194,108)" stroke="rgb(232,194,108)" stroke-width="1" opacity="0.08235294117647059"
          d="M 50.5 25 L 50.5 26 L 50.5 25 Z "></path>
    <path fill="rgb(232,194,108)" stroke="rgb(232,194,108)" stroke-width="1" opacity="0.08235294117647059"
          d="M 52.5 26 L 52.5 27 L 52.5 26 Z "></path>
    <path fill="rgb(232,194,108)" stroke="rgb(232,194,108)" stroke-width="1" opacity="0.08235294117647059"
          d="M 33.5 31 L 33.5 32 L 33.5 31 Z "></path>
    <path fill="rgb(232,194,108)" stroke="rgb(232,194,108)" stroke-width="1" opacity="0.08235294117647059"
          d="M 7.5 50 Q 10 51 8.5 52 Q 6 51 7.5 50 Z "></path>
    <path fill="rgb(232,194,108)" stroke="rgb(232,194,108)" stroke-width="1" opacity="0.08235294117647059"
          d="M 32.5 51 L 32.5 52 L 32.5 51 Z "></path>
    <path fill="rgb(234,197,106)" stroke="rgb(234,197,106)" stroke-width="1" opacity="0.1843137254901961"
          d="M 25.5 0 L 25.5 1 L 25.5 0 Z "></path>
    <path fill="rgb(234,197,106)" stroke="rgb(234,197,106)" stroke-width="1" opacity="0.1843137254901961"
          d="M 28.5 0 Q 31 1 29.5 2 Q 27 1 28.5 0 Z "></path>
    <path fill="rgb(234,197,106)" stroke="rgb(234,197,106)" stroke-width="1" opacity="0.1843137254901961"
          d="M 26.5 4 L 26.5 5 L 26.5 4 Z "></path>
    <path fill="rgb(234,197,106)" stroke="rgb(234,197,106)" stroke-width="1" opacity="0.1843137254901961"
          d="M 28.5 5 L 28.5 6 L 28.5 5 Z "></path>
    <path fill="rgb(234,197,106)" stroke="rgb(234,197,106)" stroke-width="1" opacity="0.1843137254901961"
          d="M 16.5 8 Q 18 9 15.5 10 Q 14 9 16.5 8 Z "></path>
    <path fill="rgb(234,197,106)" stroke="rgb(234,197,106)" stroke-width="1" opacity="0.1843137254901961"
          d="M 38.5 9 Q 41 10 39.5 11 Q 37 10 38.5 9 Z "></path>
    <path fill="rgb(234,197,106)" stroke="rgb(234,197,106)" stroke-width="1" opacity="0.1843137254901961"
          d="M 17.5 12 Q 19 13 16.5 14 Q 15 13 17.5 12 Z "></path>
    <path fill="rgb(234,197,106)" stroke="rgb(234,197,106)" stroke-width="1" opacity="0.1843137254901961"
          d="M 38.5 14 L 38.5 15 L 38.5 14 Z "></path>
    <path fill="rgb(234,197,106)" stroke="rgb(234,197,106)" stroke-width="1" opacity="0.1843137254901961"
          d="M 6.5 17 Q 8 18 5.5 19 Q 4 18 6.5 17 Z "></path>
    <path fill="rgb(234,197,106)" stroke="rgb(234,197,106)" stroke-width="1" opacity="0.1843137254901961"
          d="M 10.5 19 L 11 48 L 19 48.5 L 11.5 49 L 10 47.5 L 10.5 19 Z "></path>
    <path fill="rgb(234,197,106)" stroke="rgb(234,197,106)" stroke-width="1" opacity="0.1843137254901961"
          d="M 43.5 19 L 44 46.5 L 43 46.5 L 43.5 19 Z "></path>
    <path fill="rgb(234,197,106)" stroke="rgb(234,197,106)" stroke-width="1" opacity="0.1843137254901961"
          d="M 49.5 19 L 49.5 20 L 49.5 19 Z "></path>
    <path fill="rgb(234,197,106)" stroke="rgb(234,197,106)" stroke-width="1" opacity="0.1843137254901961"
          d="M 6.5 22 Q 8 23 5.5 24 Q 4 23 6.5 22 Z "></path>
    <path fill="rgb(234,197,106)" stroke="rgb(234,197,106)" stroke-width="1" opacity="0.1843137254901961"
          d="M 48.5 23 Q 51 24 49.5 25 Q 47 24 48.5 23 Z "></path>
    <path fill="rgb(234,197,106)" stroke="rgb(234,197,106)" stroke-width="1" opacity="0.1843137254901961"
          d="M 35.5 48 L 43 48.5 L 35.5 49 L 35.5 48 Z "></path>
    <path fill="rgb(235,198,107)" stroke="rgb(235,198,107)" stroke-width="1" opacity="0.27058823529411763"
          d="M 24.5 1 Q 26 2 23.5 3 Q 22 2 24.5 1 Z "></path>
    <path fill="rgb(235,198,107)" stroke="rgb(235,198,107)" stroke-width="1" opacity="0.27058823529411763"
          d="M 30.5 2 Q 33 3 31.5 4 Q 29 3 30.5 2 Z "></path>
    <path fill="rgb(235,198,107)" stroke="rgb(235,198,107)" stroke-width="1" opacity="0.27058823529411763"
          d="M 27.5 4 L 27.5 5 L 27.5 4 Z "></path>
    <path fill="rgb(235,198,107)" stroke="rgb(235,198,107)" stroke-width="1" opacity="0.27058823529411763"
          d="M 14.5 10 Q 16 11 13.5 12 Q 12 11 14.5 10 Z "></path>
    <path fill="rgb(235,198,107)" stroke="rgb(235,198,107)" stroke-width="1" opacity="0.27058823529411763"
          d="M 19.5 10 Q 21 11 18.5 12 Q 17 11 19.5 10 Z "></path>
    <path fill="rgb(235,198,107)" stroke="rgb(235,198,107)" stroke-width="1" opacity="0.27058823529411763"
          d="M 40.5 11 Q 43 12 41.5 13 Q 39 12 40.5 11 Z "></path>
    <path fill="rgb(235,198,107)" stroke="rgb(235,198,107)" stroke-width="1" opacity="0.27058823529411763"
          d="M 36.5 12 Q 39 13 37.5 14 Q 35 13 36.5 12 Z "></path>
    <path fill="rgb(235,198,107)" stroke="rgb(235,198,107)" stroke-width="1" opacity="0.27058823529411763"
          d="M 4.5 19 Q 6 20 3.5 21 Q 2 20 4.5 19 Z "></path>
    <path fill="rgb(235,198,107)" stroke="rgb(235,198,107)" stroke-width="1" opacity="0.27058823529411763"
          d="M 50.5 20 Q 53 21 51.5 22 Q 49 21 50.5 20 Z "></path>
    <path fill="rgb(235,198,107)" stroke="rgb(235,198,107)" stroke-width="1" opacity="0.27058823529411763"
          d="M 47.5 22 L 47.5 23 L 47.5 22 Z "></path>
    <path fill="rgb(235,198,107)" stroke="rgb(235,198,107)" stroke-width="1" opacity="0.27058823529411763"
          d="M 19.5 33 L 19.5 34 L 19.5 33 Z "></path>
    <path fill="rgb(235,198,107)" stroke="rgb(235,198,107)" stroke-width="1" opacity="0.27058823529411763"
          d="M 34.5 33 L 34.5 34 L 34.5 33 Z "></path>
    <path fill="rgb(235,198,107)" stroke="rgb(235,198,107)" stroke-width="1" opacity="0.27058823529411763"
          d="M 23.5 34 L 31 34.5 L 23.5 35 L 23.5 34 Z "></path>
    <path fill="rgb(235,198,107)" stroke="rgb(235,198,107)" stroke-width="1" opacity="0.27058823529411763"
          d="M 43.5 47 L 43.5 48 L 43.5 47 Z "></path>
    <path fill="rgb(235,198,107)" stroke="rgb(235,198,107)" stroke-width="1" opacity="0.27058823529411763"
          d="M 22.5 49 L 22.5 50 L 22.5 49 Z "></path>
    <path fill="rgb(235,198,107)" stroke="rgb(235,198,107)" stroke-width="1" opacity="0.27058823529411763"
          d="M 31.5 49 L 31.5 50 L 31.5 49 Z "></path>
    <path fill="rgb(235,197,107)" stroke="rgb(235,197,107)" stroke-width="1" opacity="0.8784313725490196"
          d="M 26.5 0 L 26.5 1 L 26.5 0 Z "></path>
    <path fill="rgb(235,197,107)" stroke="rgb(235,197,107)" stroke-width="1" opacity="0.8784313725490196"
          d="M 28.5 1 L 28.5 2 L 28.5 1 Z "></path>
    <path fill="rgb(235,197,107)" stroke="rgb(235,197,107)" stroke-width="1" opacity="0.8784313725490196"
          d="M 26.5 3 L 27 3.5 L 24.5 6 L 24 5.5 L 26.5 3 Z "></path>
    <path fill="rgb(235,197,107)" stroke="rgb(235,197,107)" stroke-width="1" opacity="0.8784313725490196"
          d="M 29.5 5 Q 32 6 30.5 7 Q 28 6 29.5 5 Z "></path>
    <path fill="rgb(235,197,107)" stroke="rgb(235,197,107)" stroke-width="1" opacity="0.8784313725490196"
          d="M 18.5 7 L 19 7.5 L 16.5 10 L 16 9.5 L 18.5 7 Z "></path>
    <path fill="rgb(235,197,107)" stroke="rgb(235,197,107)" stroke-width="1" opacity="0.8784313725490196"
          d="M 37.5 9 Q 40 10 38.5 11 Q 36 10 37.5 9 Z "></path>
    <path fill="rgb(235,197,107)" stroke="rgb(235,197,107)" stroke-width="1" opacity="0.8784313725490196"
          d="M 16.5 12 L 17 12.5 L 14.5 15 L 14 14.5 L 16.5 12 Z "></path>
    <path fill="rgb(235,197,107)" stroke="rgb(235,197,107)" stroke-width="1" opacity="0.8784313725490196"
          d="M 39.5 14 Q 42 15 40.5 16 Q 38 15 39.5 14 Z "></path>
    <path fill="rgb(235,197,107)" stroke="rgb(235,197,107)" stroke-width="1" opacity="0.8784313725490196"
          d="M 7.5 17 Q 9 18 6.5 19 Q 5 18 7.5 17 Z "></path>
    <path fill="rgb(235,197,107)" stroke="rgb(235,197,107)" stroke-width="1" opacity="0.8784313725490196"
          d="M 47.5 18 Q 50 19 48.5 20 Q 46 19 47.5 18 Z "></path>
    <path fill="rgb(235,197,107)" stroke="rgb(235,197,107)" stroke-width="1" opacity="0.8784313725490196"
          d="M 5.5 22 Q 7 23 4.5 24 Q 3 23 5.5 22 Z "></path>
    <path fill="rgb(235,197,107)" stroke="rgb(235,197,107)" stroke-width="1" opacity="0.8784313725490196"
          d="M 7.5 22 L 8 48.5 L 7 48.5 L 7.5 22 Z "></path>
    <path fill="rgb(235,197,107)" stroke="rgb(235,197,107)" stroke-width="1" opacity="0.8784313725490196"
          d="M 46.5 22 L 47 47.5 L 46 47.5 L 46.5 22 Z "></path>
    <path fill="rgb(235,197,107)" stroke="rgb(235,197,107)" stroke-width="1" opacity="0.8784313725490196"
          d="M 49.5 23 Q 52 24 50.5 25 Q 48 24 49.5 23 Z "></path>
    <path fill="rgb(235,197,107)" stroke="rgb(235,197,107)" stroke-width="1" opacity="0.8784313725490196"
          d="M 0.5 24 L 0.5 25 L 0.5 24 Z "></path>
    <path fill="rgb(235,197,107)" stroke="rgb(235,197,107)" stroke-width="1" opacity="0.8784313725490196"
          d="M 53.5 24 L 53.5 25 L 53.5 24 Z "></path>
    <path fill="rgb(235,197,107)" stroke="rgb(235,197,107)" stroke-width="1" opacity="0.8784313725490196"
          d="M 8.5 50 L 8.5 51 L 8.5 50 Z "></path>
    <path fill="rgb(235,197,107)" stroke="rgb(235,197,107)" stroke-width="1" opacity="0.8784313725490196"
          d="M 10.5 51 L 10.5 52 L 10.5 51 Z "></path>
    <path fill="rgb(235,197,107)" stroke="rgb(235,197,107)" stroke-width="1" opacity="0.8784313725490196"
          d="M 19.5 51 L 19.5 52 L 19.5 51 Z "></path>
    <path fill="rgb(235,197,107)" stroke="rgb(235,197,107)" stroke-width="1" opacity="0.8784313725490196"
          d="M 34.5 51 L 34.5 52 L 34.5 51 Z "></path>
    <path fill="rgb(235,197,107)" stroke="rgb(235,197,107)" stroke-width="1" opacity="0.8784313725490196"
          d="M 43.5 51 L 43.5 52 L 43.5 51 Z "></path>
</svg>